L.Illusionniste.2010.FRENCH.1080p.BRRip.x264.aac.mp4.anoXmous

Format                           : MPEG-4
Format profile                   : Base Media
Codec ID                         : isom
File size                        : 700 MiB
Duration                         : 1h 19mn
Overall bit rate mode            : Variable
Overall bit rate                 : 1 228 Kbps


Video
ID                               : 1
Format                           : AVC
Format/Info                      : Advanced Video Codec
Format profile                   : High@L4.1
Format settings, CABAC           : Yes
Format settings, ReFrames        : 4 frames
Codec ID                         : avc1
Codec ID/Info                    : Advanced Video Coding
Duration                         : 1h 19mn
Bit rate                         : 1 148 Kbps
Maximum bit rate                 : 10.0 Mbps
Width                            : 1 920 pixels
Height                           : 1 040 pixels
Display aspect ratio             : 1.850
Frame rate mode                  : Constant
Frame rate                       : 24.000 fps
Color space                      : YUV
Chroma subsampling               : 4:2:0
Bit depth                        : 8 bits
Scan type                        : Progressive
Bits/(Pixel*Frame)               : 0.024
Stream size                      : 654 MiB (93%)
Writing library                  : x264 core 120 r2120 0c7dab9


Audio
ID                               : 2
Format                           : AAC
Format/Info                      : Advanced Audio Codec
Format profile                   : LC
Codec ID                         : 40
Duration                         : 1h 19mn
Bit rate mode                    : Variable
Bit rate                         : 77.3 Kbps
Maximum bit rate                 : 98.1 Kbps
Channel(s)                       : 2 channels
Channel positions                : Front: L R
Sampling rate                    : 48.0 KHz 
Compression mode                 : Lossy
Stream size                      : 44.1 MiB (6%)
Language                         : French

                              SUB:
Illusionniste.2010.FRENCH.1080p.BRRip.x264.aac.mp4.anoXmous_swe.srt:
 
http://www.imdb.com/title/tt0775489/

 +++++++ This work very fine with PSP and XBOX :) +++++++++	